<?xml version="1.0" encoding="utf-8"?>
<!-- Generator: Adobe Illustrator 22.0.1, SVG Export Plug-In . SVG Version: 6.00 Build 0)  -->
<svg version="1.1" id="Calque_1" xmlns="http://www.w3.org/2000/svg" xmlns:xlink="http://www.w3.org/1999/xlink" x="0px" y="0px"
	 viewBox="0 0 170.1 170.1" style="enable-background:new 0 0 170.1 170.1;" xml:space="preserve">
<style type="text/css">
	.st0{fill:#007CA5;}
	.st1{fill:#FFFFFF;}
</style>
<circle class="st0" cx="83.3" cy="85.5" r="76.4"/>
<path class="st1" d="M35.7,56.5c-0.9,11.8,9,25.4,26.5,36.2l1.4,0.8l1.4-0.8c17.5-10.8,27.4-24.4,26.5-36.2
	c-0.5-6.1-3.9-11-9.3-13.3c-2.2-0.9-4.3-1.3-6.3-1.3c-6,0-10,3.8-12.3,7.1c-2.3-3.3-6.3-7.1-12.3-7.1c-2,0-4.1,0.4-6.3,1.3
	C39.6,45.5,36.2,50.4,35.7,56.5z M46.5,105.2c-0.2,1.6,0.5,3.1,1.7,4.2l24.6,19.9c1.1,0.9,2.3,1.4,3.6,1.5c0.5,0,1.1,0,1.6-0.1l0,0
	l37.4-2.9c1.1-0.2,2.3-0.3,3.5-0.2l11.4,3.7c6.1,1.9,14.4,5.1,24.8,9.8l8.3-20.9c-11.7-3-20.1-6.3-25.7-9
	c-7.9-5.4-24.2-12.6-24.2-12.6s-0.7-0.2-1.7-0.2c-0.4-0.1-0.8-0.1-1.3-0.1H76.2c0,0-0.1,0-0.1,0c-3.6,0-5.3,4.6-2.8,7.2l1.2,1.2
	c0.7,0.6,1.5,1,2.3,1.5c0.4,0.2,0.8,0.4,1.3,0.6c0.4,0.2,0.9,0.3,1.3,0.5c0.4,0.2,0.9,0.3,1.4,0.4l0.7,0.2l0.7,0.1
	c1,0.2,2,0.2,3,0.3c1,0,2,0,3,0c1,0,1.9-0.1,2.7-0.1c1.7-0.1,3.2-0.2,4.2-0.3c1-0.1,1.6-0.1,1.6-0.1c1.5-0.1,2.9,0.9,3.2,2.5
	c0.3,1.6-0.8,3.2-2.4,3.5c0,0-0.6,0.1-1.6,0.3c-1,0.2-2.5,0.5-4.3,0.8c-0.9,0.1-1.9,0.3-2.9,0.4c-1,0.2-2.2,0.2-3.4,0.3
	c-1.2,0-2.5,0.1-3.8,0l-1,0l-1-0.1c-0.7-0.1-1.4-0.1-2.1-0.3c-0.7-0.2-1.4-0.3-2.1-0.5c-0.7-0.2-1.3-0.4-2-0.7
	c-1.3-0.6-2.6-1.1-3.7-1.8c-1.2-0.6-2.1-1.4-3.1-2.1c-0.5-0.4-0.9-0.8-1.4-1.2l-9.8-8.4c-0.9-0.7-2-1.1-3.1-1.1l-1.4,0
	C48.7,101.1,46.7,102.9,46.5,105.2z"/>
</svg>
